# xmcd
#
# Track frame offsets:
#	150
#	15280
#	32520
#	55524
#	60755
#	80572
#	117608
#	134527
#	148472
#	155339
#	175418
#	192678
#	209772
#	219699
#
# Disc length: 3069 seconds
#
# Revision: 0
# Processed by: cddbd v1.5.2PL0 Copyright (c) Steve Scherf et al.
# Submitted via: dBpowerAMP V4.0
#
DISCID=d10bfb0e
DTITLE=Blodwin Pig - Getting To This
DYEAR=1995
DGENRE=Blues
TTITLE0=Drive Me
TTITLE1=Variatio On Nainos
TTITLE2=See My Way
TTITLE3=Long Bomb Blues
TTITLE4=The Squirreling Must Go On
TTITLE5=San Francisco Sketches
TTITLE6=Worry
TTITLE7=Toys
TTITLE8=To Rassmann
TTITLE9=Send Your Son To Die
TTITLE10=Summer Day
TTITLE11=Walk on the Water
TTITLE12=Blues of a
TTITLE13=Hound Dog
EXTD=
EXTT0=
EXTT1=
EXTT2=
EXTT3=
EXTT4=
EXTT5=
EXTT6=
EXTT7=
EXTT8=
EXTT9=
EXTT10=
EXTT11=
EXTT12=
EXTT13=
PLAYORDER=
